inDegrees=no
num_controls=7
num_derivatives=13
num_iterations=129
num_multipliers=7
num_parameters=0
num_slacks=7
num_states=26
objective=5.226588
objective_accelerations=0.380564
objective_balance=0.033717
objective_effort=0.178458
objective_height=4.565856
objective_ligament=0.067992
solver_duration=1429.623390
status=Solve_Succeeded
success=true
DataType=double
version=3
OpenSimVersion=4.4-2022-07-23-0e9fedc
endheader
time	/jointset/ground_pelvis/pelvis_tilt/value	/jointset/ground_pelvis/pelvis_tx/value	/jointset/ground_pelvis/pelvis_ty/value	/jointset/hip_l/hip_flexion_l/value	/jointset/hip_l/hip_adduction_l/value	/jointset/hip_l/hip_rotation_l/value	/jointset/back/lumbar_extension/value	/jointset/patellofemoral_l/patellar_flexion_l/value	/jointset/knee_l/knee_flexion_l/value	/jointset/knee_l/knee_adduction_l/value	/jointset/knee_l/knee_rotation_l/value	/jointset/ankle_l/ankle_angle_l/value	/jointset/subtalar_l/subtalar_angle_l/value	/jointset/ground_pelvis/pelvis_tilt/speed	/jointset/ground_pelvis/pelvis_tx/speed	/jointset/ground_pelvis/pelvis_ty/speed	/jointset/hip_l/hip_flexion_l/speed	/jointset/hip_l/hip_adduction_l/speed	/jointset/hip_l/hip_rotation_l/speed	/jointset/back/lumbar_extension/speed	/jointset/patellofemoral_l/patellar_flexion_l/speed	/jointset/knee_l/knee_flexion_l/speed	/jointset/knee_l/knee_adduction_l/speed	/jointset/knee_l/knee_rotation_l/speed	/jointset/ankle_l/ankle_angle_l/speed	/jointset/subtalar_l/subtalar_angle_l/speed	/forceset/tau_hip_flexion_l	/forceset/tau_hip_adduction_l	/forceset/tau_hip_rotation_l	/forceset/tau_knee_flexion_l	/forceset/tau_ankle_angle_l	/forceset/tau_subtalar_angle_l	/forceset/tau_lumbar_extension	lambda_cid13_p0	lambda_cid13_p1	lambda_cid13_p2	lambda_cid13_p3	lambda_cid13_p4	lambda_cid13_p5	lambda_cid14_p0	/jointset/ground_pelvis/pelvis_tilt/accel	/jointset/ground_pelvis/pelvis_tx/accel	/jointset/ground_pelvis/pelvis_ty/accel	/jointset/hip_l/hip_flexion_l/accel	/jointset/hip_l/hip_adduction_l/accel	/jointset/hip_l/hip_rotation_l/accel	/jointset/back/lumbar_extension/accel	/jointset/patellofemoral_l/patellar_flexion_l/accel	/jointset/knee_l/knee_flexion_l/accel	/jointset/knee_l/knee_adduction_l/accel	/jointset/knee_l/knee_rotation_l/accel	/jointset/ankle_l/ankle_angle_l/accel	/jointset/subtalar_l/subtalar_angle_l/accel	gamma_cid13_p0	gamma_cid13_p1	gamma_cid13_p2	gamma_cid13_p3	gamma_cid13_p4	gamma_cid13_p5	gamma_cid14_p0
1.5	-0.1685877507995563	0.08306191207726556	0.8179822136052837	0.6540919197014966	-0.4438441714015512	-0.2850686913959418	-0.1987841592055983	0.6838995596831773	0.6838995596831219	-0.1650544319215896	-0.1624727889940692	0.2364466719434665	0.0353573447460323	0.1524105282928581	0.05562119063652626	0.304679138244619	-1.245285745001415	0.2623054767798613	-0.6626357458378974	0.3513513916791613	-1.67792617491939	-1.677926174919391	-0.01754713700429057	0.06844349093486427	-0.7038137353923662	-0.09382651881072299	-0.07642365040560141	0.04615725488752728	-0.008714354009844855	-0.2047237871795285	-0.04308858969251825	0.02220393703368287	0.1005565861357061	-46.70015378660056	-6.342270134473758	6.244731759719013	3.485135188858254	-531.2813819613677	-65.08169381195934	-31.032689829095	0.07157097920307581	0.166591036150983	-0.3074610941442376	-0.5477500091838199	0.5809247069276297	-0.1105021236409972	0.864671328949598	-1.208704865877211	-1.208704865877212	-0.04526301112768508	0.1507842583979222	-0.5252621520178131	0.4338353044424654	1.291551167995818e-07	9.844461891220333e-07	-3.359444166231131e-07	1.863203566609895e-07	9.21422705075584e-08	6.196249426499151e-07	1.294660897425313e-07
1.51	-0.1670601335152806	0.08362635762380975	0.8210129501257335	0.6416133077727381	-0.4411927256638546	-0.2917006843335345	-0.1952281124856648	0.66706237489394	0.6670623748939277	-0.1652325388660392	-0.1617823789939455	0.2293831149836858	0.03444029285604484	0.1531027202723039	0.05725582522140123	0.3014034924620592	-1.250248041716851	0.2679549964598499	-0.6636604549819274	0.3597880163517641	-1.689260956060114	-1.68926095606012	-0.01808248459108162	0.06962408838578507	-0.7087973632172813	-0.08957363929882377	-0.07363510291253815	0.04442129265674266	-0.008695511713814264	-0.202165177804204	-0.04033726708932656	0.02169987335147508	0.09798981004143573	-45.73528082087528	-6.323693092565404	6.277631016650685	3.21757988109874	-529.1270474490028	-65.11017923319686	-31.7742271456336	0.06649141779776231	0.160131106900393	-0.347308566869853	-0.44220225481151	0.5525793610029318	-0.08299429102637065	0.8226676439705406	-1.058414712148184	-1.058414712149041	-0.058748408570788	0.09950238119436149	-0.4698280646903674	0.422392342771181	1.072106911437606e-07	1.068250555917569e-06	-2.363634454662456e-07	2.13354088752404e-07	6.023937463675912e-08	6.062095096396141e-07	1.23232696938346e-07
1.52	-0.1655259046891023	0.08420679580365173	0.824008991739047	0.6290907263264075	-0.438485661976865	-0.2983398321588234	-0.1915897975974918	0.6501193322984941	0.6501193322985352	-0.1654162148415795	-0.1610806020407387	0.2222727387522619	0.03356604537481728	0.1537328366710213	0.05881971729608183	0.2977401568173226	-1.25407964851581	0.2734290666385938	-0.6640667233756571	0.3678050253265594	-1.699097736159966	-1.699097736159978	-0.01866094322250737	0.07071688154691165	-0.7131775897206826	-0.08526563705862511	-0.07084655541957081	0.04268533042589087	-0.008676669417923624	-0.1996065684288809	-0.03758594448615545	0.021195809669167	0.09542303394711525	-44.77680530538831	-6.305099384153853	6.311788704935873	2.943497856435426	-527.0819247932487	-65.17066899262805	-32.50567964561433	0.05915586305797679	0.1524425341116674	-0.3849990665795662	-0.3216120258883883	0.5458348066788103	0.01318602641915636	0.7807481893885025	-0.9091046577029884	-0.9091046577029944	-0.05388522005444913	0.1332234004391477	-0.4045818877156056	0.4448598501021599	8.568002052459985e-08	1.120079978384146e-06	-1.489850075176235e-07	2.320293606373294e-07	3.155080190893815e-08	5.813183026505964e-07	1.158958666808681e-07
1.53	-0.1639858152257277	0.08480254924593966	0.8269665234581665	0.6165355422574179	-0.4357246812086339	-0.3049802869690416	-0.1878731533545929	0.6330854289458675	0.6330854289458804	-0.1656055593727245	-0.1603684651844396	0.2151216640946916	0.0327352958509116	0.154269888934584	0.06032213548740503	0.293709309929456	-1.25677742057054	0.2787390763647878	-0.6639336906965453	0.3754704548019577	-1.70744157498409	-1.707441574984104	-0.0192056316603572	0.07169696126393743	-0.7169331016104801	-0.08087007899995925	-0.06810314027421605	0.04085905294976981	-0.008689515986035495	-0.197080739265848	-0.03476228847446409	0.02069615929432993	0.09292315374562791	-43.80272926483499	-6.292053190293295	6.347857402803387	2.627284191200894	-525.1826422492386	-65.25921130758628	-33.22359599162581	0.04867759045652263	0.1478655226825505	-0.4206605119793428	-0.2169283281739695	0.5192688472299898	0.02703084277382251	0.7514350598935788	-0.760840153719069	-0.7608401537194147	-0.05423797563372279	0.07836222594244852	-0.3453611186431331	0.4388543463320075	6.458896463189081e-08	1.137936022501205e-06	-7.457176110276202e-08	2.418237685528604e-07	6.277447520531608e-09	5.442340858091928e-07	1.07386634129267e-07
1.54	-0.1624408157032147	0.08541307168234902	0.8298820401059904	0.6039587667612953	-0.4329114633848147	-0.3116166776616532	-0.1840814558702826	0.6159753238732067	0.6159753238731941	-0.1658002462522357	-0.159646935137225	0.207936169262415	0.03194889202010852	0.154714848496164	0.06177351612036517	0.2893371425581474	-1.258397933941613	0.2838764777566163	-0.6632538998527745	0.3828156736084705	-1.714338080166295	-1.714338080166311	-0.01972941289754419	0.07259551972528648	-0.7200616246615351	-0.07639649843796741	-0.06535972512901772	0.03903277547356413	-0.008702362554295885	-0.1945549101028333	-0.03193863246280288	0.02019650891936529	0.0904232735440503	-42.83639972453569	-6.278185194107789	6.384406235905771	2.3091122458208	-523.412911332251	-65.37953764803143	-33.92441638574034	0.04073732266202357	0.1422350224385926	-0.453263163267977	-0.1061602891566703	0.51131313980582	0.1225376593510079	0.716706055611816	-0.6196379293193659	-0.6196379293193565	-0.0497037799216941	0.1169191493038677	-0.2791841199676399	0.4604643507671457	5.470686546072813e-08	1.159270805790324e-06	-4.832713026320678e-08	2.481971503331732e-07	-2.955965896019964e-09	5.330025157547885e-07	1.053526488468297e-07
1.55	-0.1608918193730432	0.08603781149464662	0.8327521587103958	0.591371243627815	-0.430047839652395	-0.3182435009685913	-0.1802180925176174	0.5988036536512598	0.5988036536512641	-0.1660001923435987	-0.1589168758480622	0.2007225569241393	0.03120750959350192	0.1550684443495783	0.06316115319365249	0.2846324802572112	-1.2589135801508	0.2888117089649176	-0.6620166603139582	0.3897861975592824	-1.719733525194199	-1.71973352519422	-0.02025782580108525	0.07339969790878696	-0.7225505266643422	-0.07187224064979617	-0.06248159067702929	0.03705383458370291	-0.008754786484266339	-0.1920958063660533	-0.0289608876254091	0.01964127942445339	0.0878006501799352	-41.82044112974716	-6.245350132857804	6.413911339825526	1.993777569116475	-521.5860738682968	-65.48585381646657	-34.60442947578018	0.03024613133960826	0.135084472581218	-0.4871801875577237	0.004668729904853366	0.4790306957486919	0.1385286815979598	0.6766056610240897	-0.4601546939256076	-0.4601546939264564	-0.0539352345805129	0.05964777739918346	-0.2171568689018651	0.4493896214677437	5.77394338165638e-08	1.18461370160377e-06	-7.758112171693613e-08	2.50628915044648e-07	6.291422241955991e-09	5.515576909114905e-07	1.107792745484286e-07
